<?xml version="1.0" standalone="no"?>
<!DOCTYPE svg PUBLIC "-//W3C//DTD SVG 20010904//EN"
 "http://www.w3.org/TR/2001/REC-SVG-20010904/DTD/svg10.dtd">
<svg version="1.0" xmlns="http://www.w3.org/2000/svg"
 width="512.000000pt" height="512.000000pt" viewBox="0 0 512.000000 512.000000"
 preserveAspectRatio="xMidYMid meet">

<g transform="translate(0.000000,512.000000) scale(0.100000,-0.100000)"
fill="#000000" stroke="none">
<path d="M1644 4788 c-31 -14 -44 -50 -44 -117 0 -124 -46 -312 -112 -460
-104 -232 -348 -476 -584 -582 -144 -64 -331 -109 -455 -109 -72 0 -104 -14
-120 -51 -9 -22 -9 -36 0 -58 16 -37 48 -51 120 -51 122 0 291 -39 431 -99
252 -108 500 -350 609 -595 66 -146 111 -332 111 -457 0 -72 14 -104 51 -120
22 -9 36 -9 58 0 37 16 51 48 51 120 0 125 45 311 111 457 105 234 349 478
583 583 146 66 332 111 457 111 72 0 104 14 120 51 9 22 9 36 0 58 -16 37 -48
51 -120 51 -125 0 -311 45 -457 111 -234 105 -478 349 -583 583 -66 146 -111
332 -111 457 0 69 -13 103 -47 118 -29 13 -41 13 -69 -1z m60 -586 c79 -198
248 -420 425 -556 83 -64 227 -148 301 -176 33 -12 60 -26 60 -30 0 -4 -27
-18 -60 -30 -74 -28 -218 -112 -301 -176 -179 -137 -354 -368 -424 -556 -10
-27 -21 -48 -25 -48 -4 0 -15 21 -25 48 -28 76 -101 205 -164 290 -143 193
-363 365 -573 448 -27 11 -48 22 -48 25 0 4 21 14 48 24 188 70 419 245 556
424 64 83 148 227 176 301 12 33 25 60 29 60 3 0 14 -21 25 -48z"/>
<path d="M3643 3428 c-29 -14 -40 -48 -47 -145 -26 -396 -322 -751 -711 -852
-44 -12 -118 -24 -165 -27 -47 -3 -97 -10 -112 -16 -36 -14 -54 -59 -38 -97
15 -37 44 -48 150 -55 219 -15 415 -104 584 -266 175 -168 277 -382 292 -613
7 -102 18 -132 55 -147 38 -16 83 2 97 38 6 15 13 64 16 109 31 461 418 848
879 879 102 7 132 18 147 55 16 38 -2 83 -38 97 -15 6 -64 13 -109 16 -459 30
-848 418 -879 876 -7 102 -17 134 -50 149 -30 13 -42 13 -71 -1z m67 -546 c38
-89 137 -229 220 -312 83 -83 223 -182 312 -220 32 -14 58 -27 58 -30 0 -3
-26 -16 -58 -30 -89 -38 -229 -137 -312 -220 -83 -83 -182 -223 -220 -312 -14
-32 -27 -58 -30 -58 -3 0 -16 26 -30 58 -38 89 -137 229 -220 312 -83 83 -223
182 -312 220 -32 14 -58 27 -58 30 0 3 25 16 56 29 90 39 232 139 314 221 82
82 182 224 221 314 13 31 26 56 29 56 3 0 16 -26 30 -58z"/>
<path d="M2204 2068 c-29 -14 -44 -50 -44 -106 0 -75 -37 -208 -82 -296 -59
-114 -190 -245 -304 -304 -88 -45 -221 -82 -296 -82 -61 0 -94 -16 -109 -51
-9 -22 -9 -36 0 -58 15 -35 48 -51 109 -51 75 0 208 -37 291 -80 134 -70 241
-176 310 -310 44 -84 81 -217 81 -292 0 -61 16 -94 51 -109 22 -9 36 -9 58 0
35 15 51 48 51 109 0 75 37 208 80 291 70 134 176 241 310 310 84 44 217 81
292 81 61 0 94 16 109 51 9 22 9 36 0 58 -15 35 -48 51 -109 51 -75 0 -208 37
-296 82 -114 59 -245 190 -304 304 -45 88 -82 221 -82 296 0 58 -15 92 -47
107 -29 13 -41 13 -69 -1z m68 -490 c62 -126 220 -285 345 -346 29 -14 53 -29
53 -32 0 -3 -24 -17 -52 -32 -126 -62 -285 -220 -346 -345 -14 -29 -29 -53
-32 -53 -3 0 -18 24 -32 53 -61 125 -220 283 -345 345 -29 15 -53 29 -53 32 0
3 24 18 53 32 125 61 283 220 345 346 15 28 29 52 32 52 3 0 17 -24 32 -52z"/>
</g>
</svg>
